<svg id="visual" viewBox="0 0 1345 600" width="1345" height="600" xmlns="http://www.w3.org/2000/svg" xmlns:xlink="http://www.w3.org/1999/xlink" version="1.1"><rect x="0" y="0" width="1345" height="600" fill="#001220"></rect><defs><linearGradient id="grad1_0" x1="55.4%" y1="0%" x2="100%" y2="100%"><stop offset="5.166666666666667%" stop-color="#001220" stop-opacity="1"></stop><stop offset="94.83333333333333%" stop-color="#001220" stop-opacity="1"></stop></linearGradient></defs><defs><linearGradient id="grad2_0" x1="0%" y1="0%" x2="44.6%" y2="100%"><stop offset="5.166666666666667%" stop-color="#001220" stop-opacity="1"></stop><stop offset="94.83333333333333%" stop-color="#001220" stop-opacity="1"></stop></linearGradient></defs><g transform="translate(1345, 0)"><path d="M0 330C-38.1 315.1 -76.2 300.2 -119 287.3C-161.8 274.4 -209.4 263.5 -233.3 233.3C-257.3 203.2 -257.6 153.8 -269.8 111.7C-281.9 69.6 -306 34.8 -330 0L0 0Z" fill="#ffd700"></path></g><g transform="translate(0, 600)"><path d="M0 -330C44.9 -327.6 89.8 -325.1 126.3 -304.9C162.8 -284.6 190.9 -246.6 211.4 -211.4C231.9 -176.2 244.8 -143.8 263.3 -109.1C281.8 -74.3 305.9 -37.1 330 0L0 0Z" fill="#ffd700"></path></g></svg>